<?xml version="1.0" encoding="utf-8"?>
<!-- Generator: Adobe Illustrator 24.0.0, SVG Export Plug-In . SVG Version: 6.00 Build 0)  -->
<svg version="1.1" id="图层_1" xmlns="http://www.w3.org/2000/svg" xmlns:xlink="http://www.w3.org/1999/xlink" x="0px" y="0px"
	 viewBox="0 0 175 138" style="enable-background:new 0 0 175 138;" xml:space="preserve">
<title>scatter</title>
<desc>Created with Sketch.</desc>
<path id="Shape" d="M260.3,126.2c-1.3-1.3-3.1-2-4.9-2H13.8V-60.7c0-3.8-3.1-6.9-6.9-6.9S0-64.5,0-60.7v191.8c0,3.8,6.9,6.9,6.9,6.9
	h248.5c1.8,0,3.6-0.7,4.9-2c1.3-1.3,2-3.1,2-4.9C262.3,129.3,261.6,127.5,260.3,126.2z M152,90.9c7.6,0,13.8,6.2,13.8,13.8
	c0,7.6-6.2,13.8-13.8,13.8c-7.6,0-13.8-6.2-13.8-13.8C138.2,97.1,144.4,90.9,152,90.9z M69.3,7.6c4.9,0,9.5,2.6,12,6.9
	s2.5,9.5,0,13.8c-2.5,4.3-7,6.9-12,6.9c-7.6,0-13.8-6.2-13.8-13.8S61.7,7.6,69.3,7.6L69.3,7.6z M148.8,45.7c4.9,0,9.5,2.6,12,6.9
	s2.5,9.5,0,13.8c-2.5,4.3-7,6.9-12,6.9c-7.6,0-13.8-6.2-13.8-13.8S141.2,45.7,148.8,45.7L148.8,45.7z M150.5,1.9
	c7.6,0,13.8,6.2,13.8,13.8s-6.2,13.8-13.8,13.8c-7.6,0-13.8-6.2-13.8-13.8S142.9,1.9,150.5,1.9L150.5,1.9z M91.1,83.9
	c5.1-0.2,9.9,2.3,12.5,6.7c2.6,4.4,2.6,9.8,0,14.2s-7.4,6.9-12.5,6.7c-7.4-0.3-13.2-6.4-13.2-13.8C77.9,90.3,83.7,84.2,91.1,83.9
	L91.1,83.9z M106.8,31.9c4.9,0,9.5,2.6,12,6.9c2.5,4.3,2.5,9.5,0,13.8c-2.5,4.3-7,6.9-12,6.9c-7.6,0-13.8-6.2-13.8-13.8
	S99.2,31.9,106.8,31.9L106.8,31.9z M48.3,75.9c4.9,0,9.5,2.6,12,6.9c2.5,4.3,2.5,9.5,0,13.8c-2.5,4.3-7,6.9-12,6.9
	c-7.6,0-13.8-6.2-13.8-13.8C34.5,82.1,40.7,75.9,48.3,75.9L48.3,75.9z"/>
</svg>
